<?xml version="1.0" standalone="no"?>
<!DOCTYPE svg PUBLIC "-//W3C//DTD SVG 20010904//EN"
 "http://www.w3.org/TR/2001/REC-SVG-20010904/DTD/svg10.dtd">
<svg version="1.0" xmlns="http://www.w3.org/2000/svg"
 width="1531.000000pt" height="803.000000pt" viewBox="0 0 1531.000000 803.000000"
 preserveAspectRatio="xMidYMid meet">

<g transform="translate(0.000000,803.000000) scale(0.100000,-0.100000)"
fill="#000000" stroke="none">
<path d="M7537 8015 c-27 -7 -74 -26 -105 -42 -78 -38 -217 -178 -271 -270
-257 -445 -196 -1102 132 -1426 183 -180 436 -209 640 -73 160 106 291 320
349 565 25 110 36 384 19 501 -56 383 -263 676 -526 745 -71 18 -172 18 -238
0z"/>
<path d="M5809 7617 c-195 -73 -284 -310 -166 -444 44 -50 85 -65 181 -64 127
0 237 48 314 135 17 20 40 36 52 36 29 0 147 -116 234 -229 111 -145 291 -423
341 -526 81 -170 140 -371 191 -650 l27 -150 -7 -545 c-12 -1014 -42 -1787
-75 -1930 l-8 -35 -18 40 c-27 62 -53 206 -65 365 -8 97 -10 426 -8 995 3 931
5 896 -58 1185 -138 627 -473 1010 -968 1105 -97 19 -304 31 -369 21 -67 -10
-107 -50 -107 -108 0 -31 6 -51 20 -66 43 -46 77 -55 247 -63 90 -5 205 -17
256 -27 466 -96 713 -468 776 -1172 21 -231 7 -832 -29 -1240 -5 -63 -14 -232
-20 -375 -9 -240 -21 -380 -34 -392 -13 -14 -121 61 -197 137 -160 159 -262
384 -316 695 -26 153 -23 470 6 639 28 166 54 269 97 380 47 122 135 288 190
361 97 128 111 193 74 355 -11 47 -20 107 -20 133 0 45 -1 48 -22 42 -141 -42
-300 -228 -443 -520 -323 -660 -372 -1324 -138 -1878 54 -130 145 -284 235
-398 87 -111 261 -278 378 -362 126 -89 460 -256 616 -306 171 -56 432 -101
585 -101 l39 0 0 1565 c0 861 -2 1565 -5 1565 -33 0 -169 37 -199 53 -77 43
-153 167 -405 656 -172 333 -243 459 -346 616 -171 259 -335 421 -496 486 -68
28 -281 38 -340 16z"/>
<path d="M9199 7611 c-207 -66 -414 -286 -649 -691 -40 -68 -144 -264 -232
-435 -279 -539 -340 -630 -451 -664 -34 -10 -83 -21 -109 -25 l-48 -7 0 -1566
0 -1566 108 7 c324 21 583 96 892 258 160 84 249 143 367 242 339 285 555 676
618 1121 23 157 21 434 -4 601 -90 603 -431 1259 -693 1335 -26 7 -28 6 -28
-21 0 -16 -11 -86 -25 -156 -34 -167 -23 -225 60 -329 101 -126 212 -368 264
-573 46 -179 56 -276 56 -532 -1 -228 -3 -254 -28 -371 -76 -358 -234 -620
-438 -729 -33 -17 -62 -30 -64 -28 -9 10 -26 246 -35 497 -6 156 -13 287 -15
291 -6 10 -33 488 -41 735 -19 586 71 1038 265 1323 160 237 441 362 811 362
106 0 164 15 206 55 41 39 46 87 12 130 -33 42 -76 55 -185 55 -349 0 -621
-105 -839 -324 -221 -222 -365 -542 -434 -967 -38 -237 -42 -371 -29 -1059 16
-831 3 -1107 -63 -1306 -17 -54 -23 -63 -29 -46 -33 88 -61 742 -79 1856 l-10
619 25 146 c72 401 144 610 299 856 217 344 408 575 477 575 10 0 29 -14 41
-31 32 -43 130 -106 195 -125 111 -32 243 -15 300 38 58 55 70 206 24 297 -33
63 -103 126 -167 150 -73 28 -242 29 -325 2z"/>
<path d="M1930 2085 c-19 -8 -68 -19 -107 -26 l-73 -12 0 -63 0 -64 45 0 45 0
0 -64 0 -65 -32 13 c-178 74 -353 -33 -389 -236 -40 -221 100 -414 287 -395
43 4 91 21 157 55 4 2 7 -8 7 -22 l0 -26 135 0 135 0 0 63 0 63 -42 10 -43 9
-3 388 -2 387 -43 -1 c-23 -1 -58 -7 -77 -14z m-131 -420 c16 -8 31 -22 35
-30 3 -9 6 -73 6 -141 l0 -124 -32 -20 c-95 -58 -172 12 -172 155 1 78 17 121
60 154 31 25 64 27 103 6z"/>
<path d="M3095 2084 c-22 -8 -70 -20 -107 -26 l-68 -11 0 -63 0 -64 50 0 50 0
0 -277 c0 -153 -3 -288 -6 -300 -5 -17 -16 -24 -50 -29 l-44 -6 0 -59 0 -59
200 0 200 0 0 59 0 58 -41 6 c-23 3 -46 11 -50 19 -5 7 -9 183 -9 391 l0 377
-42 -1 c-24 0 -61 -7 -83 -15z"/>
<path d="M13682 2087 c-69 -39 -78 -147 -15 -197 18 -14 41 -20 74 -20 111 0
159 121 79 201 -23 23 -37 29 -72 29 -24 -1 -53 -6 -66 -13z"/>
<path d="M4085 2050 c-122 -39 -221 -134 -267 -255 -19 -49 -23 -80 -23 -170
0 -128 15 -183 76 -275 114 -170 353 -229 542 -135 27 14 51 24 52 23 1 -2 8
-13 14 -25 10 -21 19 -23 81 -23 l70 0 0 153 c0 106 4 157 12 165 7 7 29 12
50 12 l38 0 0 65 0 65 -215 0 -215 0 0 -64 0 -65 53 -3 52 -3 3 -58 c4 -73
-12 -99 -72 -122 -104 -40 -198 4 -255 119 -30 59 -36 81 -39 156 -5 112 14
185 66 242 67 74 155 89 243 41 45 -24 106 -91 137 -150 l12 -22 60 21 c33 11
60 25 60 31 0 5 -17 72 -37 149 l-37 138 -48 0 c-33 0 -50 -5 -56 -16 -8 -14
-15 -14 -76 5 -87 27 -198 27 -281 1z"/>
<path d="M8500 2056 c-154 -45 -267 -168 -301 -327 -7 -30 -9 -92 -6 -142 4
-78 9 -98 46 -172 96 -195 289 -282 509 -230 74 18 110 35 174 83 44 33 155
159 147 166 -2 1 -25 19 -52 38 l-47 36 -68 -67 c-77 -77 -125 -103 -200 -109
-100 -9 -174 39 -228 148 -22 44 -29 73 -32 141 -5 106 14 174 67 232 45 50
85 67 154 67 85 0 156 -55 228 -176 l24 -41 60 17 c49 14 59 20 57 36 -3 18
-35 135 -68 252 l-15 52 -49 0 c-39 0 -50 -4 -55 -19 -6 -19 -7 -19 -53 1 -59
27 -223 34 -292 14z"/>
<path d="M40 1995 l0 -65 38 0 c21 0 43 -5 50 -12 9 -9 12 -89 12 -300 l0
-288 -26 -10 c-14 -6 -36 -10 -50 -10 -23 0 -24 -3 -24 -60 l0 -60 215 0 215
0 0 60 c0 57 -1 60 -24 60 -14 0 -36 4 -50 10 l-26 10 0 288 c0 211 3 291 12
300 7 7 29 12 50 12 l38 0 0 65 0 65 -215 0 -215 0 0 -65z"/>
<path d="M711 1809 c-29 -10 -75 -22 -102 -25 l-49 -7 0 -63 0 -64 45 0 45 0
0 -149 c0 -82 -3 -157 -6 -165 -4 -9 -23 -19 -45 -22 l-39 -7 0 -58 0 -59 180
0 180 0 0 59 c0 57 -1 60 -29 66 -36 8 -41 29 -41 181 l0 113 44 26 c25 14 60
29 79 32 30 4 38 1 51 -20 14 -20 16 -49 14 -173 l-3 -148 -32 -10 c-32 -9
-33 -10 -33 -67 l0 -59 185 0 185 0 0 60 c0 56 -2 60 -22 60 -13 0 -33 3 -45
6 -23 6 -23 9 -23 153 0 188 -11 255 -47 294 -45 47 -81 61 -159 61 -62 0 -81
-4 -143 -35 l-71 -35 0 38 c0 36 -1 38 -32 37 -18 0 -57 -9 -87 -20z"/>
<path d="M2439 1820 c-105 -19 -191 -81 -203 -145 -23 -123 137 -161 189 -45
18 39 56 70 88 70 8 0 26 -9 41 -21 21 -16 26 -29 26 -64 l0 -44 -47 -6 c-96
-11 -217 -45 -255 -70 -67 -44 -95 -135 -64 -208 18 -44 78 -95 121 -103 68
-12 158 0 218 31 l57 28 23 -21 c33 -31 71 -42 140 -42 105 0 107 2 107 77 l0
64 -33 -6 c-59 -11 -65 6 -69 205 -3 155 -5 179 -24 210 -42 72 -187 114 -315
90z m141 -419 c0 -48 -1 -49 -40 -65 -48 -19 -91 -21 -108 -4 -17 17 -15 63 3
78 21 17 85 39 118 40 26 0 27 -2 27 -49z"/>
<path d="M4920 1804 c-36 -13 -82 -23 -102 -24 l-38 0 0 -65 0 -65 45 0 45 0
0 -160 c0 -147 -1 -160 -19 -170 -11 -5 -31 -10 -45 -10 -25 0 -26 -2 -26 -60
l0 -60 195 0 195 0 0 60 c0 56 -2 60 -22 60 -13 0 -33 3 -45 6 -23 6 -23 9
-23 149 0 119 3 144 15 149 9 3 49 3 90 -1 71 -6 74 -5 99 22 56 60 21 176
-58 190 -37 7 -92 -12 -143 -51 l-33 -25 0 40 c0 40 -1 41 -32 40 -18 -1 -62
-12 -98 -25z"/>
<path d="M5617 1820 c-103 -18 -191 -81 -234 -168 -25 -50 -28 -68 -28 -152 0
-119 24 -179 97 -245 68 -61 129 -80 254 -80 96 0 105 2 170 35 118 60 169
152 168 300 -1 163 -100 278 -269 309 -65 12 -88 12 -158 1z m134 -156 c100
-51 90 -287 -14 -338 -34 -16 -42 -17 -75 -4 -67 25 -104 132 -81 236 22 103
92 147 170 106z"/>
<path d="M7130 1813 c-19 -8 -64 -21 -100 -27 l-65 -12 -3 -67 -3 -67 46 0 45
0 -2 -297 -3 -298 -42 -3 -43 -3 0 -65 0 -64 195 0 195 0 0 64 0 65 -42 3 -43
3 -3 78 c-2 42 -2 77 0 77 2 0 21 -7 43 -15 111 -40 228 -3 302 93 91 119 87
350 -8 465 -69 84 -189 106 -301 55 l-57 -26 -3 26 c-3 23 -8 27 -38 29 -19 1
-51 -5 -70 -14z m269 -159 c34 -24 51 -75 51 -154 0 -81 -16 -128 -55 -158
-37 -29 -80 -28 -110 3 -24 23 -25 29 -25 154 l0 131 38 19 c46 25 71 26 101
5z"/>
<path d="M9390 1821 c-105 -19 -203 -92 -243 -179 -17 -37 -22 -67 -22 -142 0
-84 3 -102 28 -152 16 -32 48 -75 73 -97 65 -57 128 -76 249 -76 86 0 108 4
155 26 114 53 175 138 186 260 16 163 -62 293 -205 344 -52 18 -164 26 -221
16z m130 -154 c44 -22 70 -83 70 -164 0 -79 -11 -116 -42 -150 -57 -61 -140
-46 -178 31 -26 54 -28 172 -3 223 29 62 97 88 153 60z"/>
<path d="M10072 1809 c-29 -11 -76 -23 -105 -27 l-52 -7 -3 -63 -3 -62 51 0
51 0 -3 -159 c-2 -88 -6 -162 -10 -166 -3 -4 -25 -9 -47 -12 l-41 -6 0 -58 0
-59 185 0 185 0 0 59 c0 56 -1 59 -27 66 -15 3 -31 12 -35 18 -4 7 -8 71 -8
144 l0 132 43 25 c57 34 97 41 122 22 18 -13 20 -28 23 -151 4 -167 2 -181
-38 -188 -29 -6 -30 -8 -30 -67 l0 -60 175 0 175 0 0 60 0 59 -34 6 c-42 8
-46 24 -46 181 l0 113 43 25 c61 36 92 41 122 22 l26 -17 -3 -157 -3 -156 -32
-10 c-32 -9 -33 -10 -33 -67 l0 -59 185 0 185 0 0 60 c0 58 -1 60 -26 60 -14
0 -34 5 -45 10 -18 10 -19 23 -19 171 0 177 -9 233 -46 272 -42 45 -83 61
-160 61 -62 0 -81 -4 -145 -36 l-73 -36 -32 28 c-51 44 -127 57 -211 36 -37
-9 -84 -28 -105 -41 l-38 -25 0 40 c0 39 -1 40 -32 39 -18 0 -57 -9 -86 -20z"/>
<path d="M11330 1813 c-19 -8 -64 -21 -100 -27 l-65 -12 -3 -67 -3 -67 46 0
45 0 0 -284 c0 -156 -3 -291 -6 -300 -4 -11 -19 -16 -45 -16 l-39 0 0 -65 0
-65 195 0 195 0 0 64 0 65 -42 3 -43 3 -3 79 c-3 72 -1 78 15 71 125 -51 256
-18 326 81 18 25 40 66 49 92 22 60 23 200 3 269 -49 165 -208 234 -363 157
l-62 -31 0 34 c0 31 -2 33 -32 32 -18 0 -49 -7 -68 -16z m280 -173 c30 -32 40
-67 40 -144 0 -74 -16 -121 -51 -150 -37 -31 -77 -33 -113 -5 -26 20 -26 22
-26 154 l0 135 38 19 c52 28 79 26 112 -9z"/>
<path d="M12180 1817 c-115 -26 -190 -92 -190 -166 1 -57 39 -91 100 -91 34 0
69 30 105 90 25 42 64 56 102 38 25 -12 28 -19 31 -66 2 -28 -1 -52 -6 -52 -5
0 -48 -7 -95 -15 -197 -34 -267 -89 -267 -208 0 -65 27 -111 85 -145 35 -20
50 -22 125 -19 68 3 95 9 138 31 48 24 56 26 70 13 38 -33 82 -47 151 -47 100
0 101 1 101 77 l0 65 -28 -6 c-17 -4 -35 -1 -47 8 -18 13 -20 30 -25 200 -6
214 -9 222 -100 268 -67 33 -169 44 -250 25z m150 -415 c0 -45 -2 -49 -35 -65
-20 -9 -48 -17 -62 -17 -31 0 -63 26 -63 50 0 35 71 76 138 79 20 1 22 -4 22
-47z"/>
<path d="M12850 1808 c-30 -11 -76 -22 -102 -25 l-48 -6 0 -63 0 -64 45 0 45
0 -2 -162 -3 -163 -42 -9 -43 -10 0 -58 0 -58 185 0 185 0 0 58 c0 57 -1 58
-32 67 l-33 10 0 145 0 145 54 28 c63 31 83 33 106 11 13 -13 15 -40 13 -172
l-3 -156 -32 -10 c-32 -9 -33 -10 -33 -67 l0 -59 185 0 185 0 0 60 c0 59 0 60
-28 60 -58 0 -61 8 -64 210 -3 213 -11 237 -89 280 -35 20 -58 24 -115 24 -67
-1 -91 -8 -196 -62 -5 -2 -8 12 -8 32 0 35 -1 36 -37 35 -21 -1 -63 -10 -93
-21z"/>
<path d="M13736 1810 c-21 -10 -71 -23 -112 -30 l-74 -11 0 -60 0 -59 45 0 45
0 0 -160 c0 -147 -1 -160 -19 -170 -11 -5 -31 -10 -45 -10 -25 0 -26 -2 -26
-60 l0 -60 195 0 195 0 0 60 c0 56 -2 60 -22 60 -13 0 -33 3 -45 6 l-23 6 0
254 0 254 -37 -1 c-21 0 -55 -9 -77 -19z"/>
<path d="M14263 1819 c-115 -22 -205 -95 -243 -195 -29 -79 -26 -197 8 -266
94 -192 350 -247 530 -113 31 23 66 52 76 64 l20 22 -46 46 -46 46 -33 -27
c-81 -69 -173 -89 -226 -50 -40 30 -73 82 -73 115 l0 29 205 0 205 0 0 38 c0
91 -55 201 -122 247 -41 28 -136 56 -183 54 -16 -1 -49 -5 -72 -10z m112 -134
c29 -14 55 -50 55 -75 0 -6 -41 -10 -95 -10 -105 0 -112 5 -74 54 20 25 50 44
72 45 5 1 24 -6 42 -14z"/>
<path d="M14925 1824 c-61 -15 -90 -29 -121 -57 -48 -41 -64 -77 -64 -140 0
-101 51 -144 252 -213 59 -20 116 -46 125 -56 17 -19 17 -21 -7 -40 -48 -39
-143 -6 -226 78 l-51 52 -54 -23 c-30 -13 -55 -29 -57 -37 -1 -7 13 -53 32
-103 l34 -90 47 -3 c27 -2 51 2 55 7 4 7 26 4 66 -10 118 -42 272 -5 330 81
20 28 24 47 24 107 0 112 -30 139 -245 215 -60 22 -118 47 -128 56 -18 16 -18
17 3 34 12 10 32 18 44 18 37 0 121 -46 152 -83 l29 -35 62 25 61 24 -19 67
c-11 37 -22 77 -25 90 -5 19 -13 22 -54 22 -27 0 -50 -5 -52 -10 -2 -7 -16 -6
-39 4 -38 16 -142 28 -174 20z"/>
<path d="M6200 1811 l-85 -6 0 -60 0 -60 38 -3 c52 -4 57 -22 57 -219 0 -200
9 -227 97 -270 71 -34 152 -29 247 15 l66 31 0 -30 0 -29 140 0 140 0 0 65 c0
61 -1 65 -22 65 -13 0 -33 3 -45 6 l-23 6 0 251 0 250 -107 -6 c-58 -4 -126
-7 -150 -7 l-43 0 0 -65 0 -65 33 0 c53 0 57 -10 57 -160 l0 -137 -49 -26
c-61 -33 -104 -35 -125 -5 -13 19 -16 60 -16 245 l0 223 -62 -2 c-35 -1 -101
-4 -148 -7z"/>
<path d="M5589 581 c-25 -16 -49 -38 -53 -48 -8 -20 -25 -227 -26 -310 0 -56
10 -65 43 -41 13 10 19 34 24 95 5 73 8 82 30 92 50 23 53 19 53 -89 0 -119 8
-128 80 -88 l45 25 18 -23 c14 -19 27 -24 61 -24 48 0 146 44 146 66 0 18 -5
18 -57 -2 -49 -19 -84 -10 -102 25 -10 18 -6 23 36 47 69 39 93 64 93 94 0 52
-43 64 -115 31 -61 -28 -78 -53 -83 -121 -4 -48 -8 -61 -24 -66 -11 -3 -23 -3
-26 1 -4 4 -7 50 -7 103 l0 97 -25 -4 c-14 -1 -36 -9 -50 -16 -65 -33 -67 -31
-62 37 6 82 15 98 55 98 34 0 57 15 57 37 0 23 -63 14 -111 -16z m325 -187 c4
-10 -5 -26 -25 -45 -39 -37 -53 -37 -44 -1 13 51 56 80 69 46z"/>
<path d="M6645 582 c-47 -33 -51 -47 -61 -224 -10 -194 10 -222 112 -154 l51
35 16 -35 c11 -22 24 -34 37 -34 28 0 100 37 107 56 9 24 -3 27 -31 9 -42 -28
-56 -7 -56 81 l0 74 66 0 67 0 -7 -85 c-8 -105 -2 -135 28 -135 30 0 116 56
116 75 0 14 -3 14 -29 1 -45 -24 -53 -6 -45 108 5 63 3 96 -3 96 -6 0 -30 -7
-53 -15 -23 -8 -62 -15 -86 -15 l-44 0 0 45 c0 33 -4 45 -15 45 -23 0 -55 -37
-55 -64 0 -18 -6 -26 -22 -28 -33 -5 -35 -28 -2 -28 26 0 27 -1 20 -46 -3 -26
-6 -52 -6 -59 0 -6 -17 -21 -39 -33 -34 -19 -40 -20 -51 -7 -17 21 -14 197 6
293 3 17 11 22 33 22 35 0 62 27 40 41 -24 15 -52 9 -94 -19z"/>
<path d="M8889 590 c-19 -10 -41 -25 -47 -33 -25 -30 -41 -316 -20 -362 15
-34 43 -32 104 9 l52 35 6 -30 c8 -43 30 -46 87 -10 28 17 52 31 54 31 2 0 5
-12 7 -27 4 -39 30 -40 83 -4 26 17 48 31 50 31 3 0 11 -13 20 -30 10 -20 23
-30 38 -30 31 0 101 42 105 63 4 17 2 18 -28 2 -48 -25 -60 -8 -60 81 l0 74
66 0 67 0 -7 -85 c-10 -140 6 -161 88 -111 l40 24 19 -24 c34 -44 121 -29 177
31 20 21 26 40 30 93 5 65 6 67 33 70 l29 3 -7 -93 c-4 -51 -9 -101 -12 -110
-5 -20 5 -22 40 -9 23 9 25 17 32 91 7 78 9 83 39 101 17 10 34 19 38 19 4 0
9 -48 10 -107 4 -127 10 -133 88 -83 61 39 70 82 10 50 -34 -18 -43 10 -35
110 8 106 7 107 -85 60 l-60 -30 0 30 c0 17 -5 30 -12 30 -20 -1 -102 -40
-110 -53 -5 -8 -8 -7 -8 5 0 23 -38 48 -74 48 -40 0 -113 -44 -131 -80 -8 -16
-15 -49 -15 -74 0 -34 -5 -48 -19 -55 -34 -19 -42 7 -35 113 5 63 3 96 -3 96
-6 0 -30 -7 -53 -15 -23 -8 -62 -15 -86 -15 l-44 0 0 45 c0 25 -5 45 -11 45
-26 0 -49 -23 -55 -55 -4 -24 -12 -35 -27 -37 -32 -5 -33 -28 -1 -28 26 0 27
-1 20 -46 -3 -26 -6 -54 -6 -63 0 -9 -14 -22 -31 -30 -45 -20 -51 -4 -44 107
l6 94 -23 -7 c-43 -13 -48 -25 -48 -99 0 -70 -1 -72 -32 -90 -48 -29 -58 -8
-51 106 l6 90 -24 -7 c-41 -13 -99 -45 -99 -55 0 -6 11 -10 25 -10 24 0 25 -3
25 -53 0 -52 -1 -54 -39 -75 l-40 -23 -12 22 c-12 23 -14 112 -4 209 10 95 12
100 44 100 35 0 62 27 40 41 -21 13 -40 10 -80 -11z m847 -205 c20 -31 23
-120 6 -152 -16 -29 -46 -29 -66 -1 -22 31 -22 135 1 160 22 25 39 23 59 -7z"/>
<path d="M10398 580 c-49 -33 -78 -80 -78 -128 0 -26 -4 -31 -27 -34 -39 -4
-42 -28 -3 -28 l31 0 -5 -47 c-3 -27 -8 -92 -11 -147 -9 -135 -14 -146 -68
-146 -37 0 -46 -4 -55 -25 -11 -25 -11 -25 33 -25 35 0 51 6 80 31 20 18 43
45 51 61 13 26 33 179 34 266 0 29 3 32 29 32 16 0 36 3 45 6 30 12 16 24 -27
24 l-43 0 7 59 c3 32 10 64 13 70 4 6 27 11 51 11 41 0 55 10 55 41 0 21 -68
8 -112 -21z"/>
<path d="M11849 590 c-19 -10 -41 -25 -48 -33 -6 -8 -17 -78 -23 -157 -11
-133 -14 -143 -35 -153 -13 -6 -26 -7 -31 -3 -4 4 -6 52 -4 106 l3 99 -28 -8
c-30 -8 -41 -41 -42 -128 -1 -37 -5 -45 -31 -58 -17 -9 -35 -13 -41 -9 -7 4
-10 41 -7 99 1 51 0 96 -3 100 -9 8 -119 -42 -119 -54 0 -6 14 -11 30 -11 28
0 30 -2 30 -37 0 -21 -3 -47 -6 -59 -5 -21 -60 -48 -76 -38 -5 3 -6 46 -2 99
4 61 3 94 -4 99 -6 3 -36 -5 -68 -19 -68 -30 -64 -30 -64 -6 0 33 -18 34 -84
3 -51 -24 -63 -27 -60 -13 3 9 0 22 -5 30 -8 12 -17 11 -58 -6 -52 -21 -73
-55 -31 -51 23 3 23 3 20 -104 -4 -100 -3 -108 15 -108 37 0 45 16 50 103 5
78 8 86 30 96 54 25 56 20 48 -94 -6 -98 -6 -105 12 -105 37 0 46 16 51 96 3
65 8 82 26 96 11 10 29 18 39 18 16 0 18 -9 15 -94 -4 -125 3 -132 83 -88 l60
32 10 -30 c14 -37 27 -38 87 0 l47 29 8 -29 c10 -37 30 -38 81 -4 37 26 40 26
53 9 7 -11 13 -22 13 -27 0 -19 49 -6 96 26 l51 35 16 -35 c12 -24 23 -34 39
-34 32 0 102 42 106 63 4 17 2 18 -28 2 -48 -25 -60 -8 -60 81 l0 74 66 0 67
0 -7 -85 c-11 -144 6 -163 97 -105 l47 30 0 -48 c0 -26 -3 -70 -6 -99 -5 -42
-11 -53 -27 -55 -11 -2 -22 -9 -25 -15 -6 -20 164 -18 172 2 4 12 -3 15 -30
15 -29 0 -35 3 -30 16 3 9 6 40 6 70 0 52 1 54 27 54 41 0 108 45 124 82 7 18
14 62 14 96 0 56 -3 66 -24 83 -15 12 -33 18 -45 15 -12 -3 -33 -8 -48 -11
-24 -6 -26 -4 -21 15 3 12 14 27 24 33 24 15 24 27 1 27 -33 0 -92 -49 -92
-76 0 -16 -8 -28 -25 -36 -30 -14 -35 -43 -5 -35 18 5 20 0 20 -56 0 -33 -3
-58 -6 -54 -4 3 -19 0 -34 -8 -44 -23 -52 -4 -44 109 5 63 3 96 -3 96 -6 0
-30 -7 -53 -15 -23 -8 -62 -15 -86 -15 l-44 0 0 45 c0 25 -5 45 -11 45 -26 0
-49 -23 -55 -55 -4 -24 -12 -35 -27 -37 -31 -5 -34 -28 -3 -28 28 0 31 -12 20
-81 -5 -29 -14 -41 -45 -58 l-38 -22 -12 23 c-12 23 -7 256 7 291 4 10 17 17
34 17 35 0 61 27 39 41 -21 13 -40 10 -80 -11z m586 -283 c0 -76 -10 -92 -54
-82 -29 6 -31 10 -31 48 0 106 20 139 65 112 17 -11 20 -23 20 -78z"/>
<path d="M12614 585 c-23 -14 -45 -32 -48 -41 -4 -9 -11 -82 -17 -163 -16
-206 1 -239 94 -187 l48 27 20 -26 c16 -20 29 -25 63 -25 48 0 146 44 146 66
0 18 -5 18 -57 -2 -49 -19 -84 -10 -102 25 -10 18 -6 23 36 47 69 39 93 64 93
94 0 52 -43 64 -115 31 -59 -27 -77 -52 -84 -118 -5 -52 -9 -59 -34 -67 -44
-16 -49 2 -42 143 7 164 9 171 49 171 41 0 67 35 33 44 -34 9 -39 8 -83 -19z
m210 -191 c4 -10 -5 -26 -25 -45 -39 -37 -53 -37 -44 -1 13 51 56 80 69 46z"/>
<path d="M13148 581 c-25 -16 -49 -34 -52 -40 -8 -13 -23 -149 -29 -276 l-5
-90 61 -3 c83 -3 130 28 152 101 8 28 15 63 15 79 0 23 4 28 25 28 25 0 25 -1
25 -86 0 -86 10 -124 33 -124 7 0 34 13 59 29 48 31 58 30 58 -1 0 -28 26 -32
63 -10 33 19 34 19 56 1 40 -33 110 -19 154 29 13 14 17 32 15 59 -3 34 -8 40
-45 58 -62 30 -71 41 -50 62 16 16 19 16 48 -6 29 -22 31 -22 44 -4 20 25 18
41 -4 53 -29 15 -60 12 -95 -10 -65 -40 -72 -107 -15 -138 62 -34 75 -48 60
-66 -20 -24 -48 -19 -68 12 -9 15 -18 28 -19 30 -1 2 -16 -4 -33 -13 -49 -25
-55 -14 -48 96 3 55 5 99 3 99 -2 0 -17 -5 -35 -11 -31 -11 -31 -11 -31 -84 0
-68 -2 -75 -26 -94 -55 -43 -68 -23 -58 94 4 49 3 85 -3 88 -5 3 -33 -5 -61
-18 l-52 -24 -25 24 c-29 30 -35 30 -86 5 l-39 -21 6 58 c9 79 18 93 58 93 32
0 46 13 46 41 0 19 -58 8 -102 -20z m62 -206 c17 -21 14 -113 -5 -141 -13 -21
-18 -22 -46 -12 -31 11 -31 11 -27 73 2 35 10 70 17 79 17 20 45 21 61 1z"/>
<path d="M6970 555 l-24 -26 27 -27 27 -27 25 26 26 25 -21 27 c-26 33 -31 33
-60 2z"/>
<path d="M9490 555 l-24 -26 27 -27 27 -27 27 27 27 27 -24 26 c-13 14 -26 25
-30 25 -4 0 -17 -11 -30 -25z"/>
<path d="M12160 555 l-24 -26 27 -27 27 -27 27 27 27 27 -24 26 c-13 14 -26
25 -30 25 -4 0 -17 -11 -30 -25z"/>
<path d="M13875 558 l-27 -24 25 -30 26 -29 28 28 28 27 -26 26 -26 26 -28
-24z"/>
<path d="M5166 531 c-3 -4 -8 -34 -12 -65 -6 -51 -5 -56 13 -56 13 0 23 12 32
38 19 52 29 62 63 62 l30 0 -6 -122 c-10 -172 -10 -175 -51 -182 -74 -14 -44
-26 64 -26 110 0 145 11 75 25 l-36 6 6 82 c18 231 15 217 46 217 36 0 56 -20
64 -65 7 -36 12 -40 34 -27 9 6 11 24 6 65 l-7 57 -158 0 c-87 0 -160 -4 -163
-9z"/>
<path d="M6147 533 c-12 -12 -7 -23 11 -23 43 -1 45 -9 32 -154 -10 -122 -10
-140 4 -162 21 -30 60 -32 148 -4 79 25 88 25 88 0 0 -17 7 -20 49 -20 87 0
141 36 64 42 l-38 3 2 125 c3 150 6 168 35 172 12 2 23 9 26 16 6 19 -152 17
-167 -2 -10 -12 -7 -15 15 -18 27 -3 27 -3 25 -73 -1 -38 -6 -97 -9 -129 -7
-56 -9 -60 -42 -72 -49 -17 -105 -17 -120 1 -23 27 -9 255 16 276 8 6 14 15
14 20 0 10 -143 12 -153 2z"/>
<path d="M7820 490 c-11 -11 -20 -31 -20 -44 0 -18 -6 -26 -22 -28 -33 -5 -35
-28 -2 -28 26 0 27 -1 20 -46 -3 -26 -6 -53 -6 -60 0 -13 -49 -44 -70 -44 -15
0 -12 130 4 162 17 32 15 34 -45 43 -36 5 -55 3 -85 -13 -61 -32 -84 -62 -91
-123 -6 -53 -15 -69 -40 -69 -10 0 -13 28 -13 106 0 120 5 117 -92 68 l-48
-24 0 24 c0 37 -13 39 -76 11 -68 -30 -64 -30 -64 -6 0 31 -16 33 -70 10 -51
-22 -69 -53 -27 -47 22 3 22 1 22 -104 -1 -96 1 -108 16 -108 44 0 49 9 49 89
0 82 4 92 37 110 44 23 46 17 41 -94 -5 -110 -5 -111 40 -99 19 6 22 13 22 58
0 96 9 122 46 140 39 18 36 27 34 -94 -2 -118 12 -132 83 -84 37 25 39 25 52
7 8 -10 15 -21 15 -25 0 -17 45 -7 76 17 40 31 42 31 46 3 5 -34 29 -33 85 5
l51 34 16 -33 c10 -22 23 -34 36 -34 28 0 100 37 107 56 9 24 -3 27 -31 9 -42
-28 -56 -7 -56 81 l0 74 34 0 c18 0 39 7 46 15 11 13 7 15 -29 15 l-41 0 0 45
c0 51 -16 59 -50 25z m-172 -155 c-6 -69 -19 -95 -48 -95 -22 0 -30 19 -30 76
0 62 14 84 52 84 l31 0 -5 -65z"/>
<path d="M8038 430 c-61 -33 -78 -63 -78 -140 0 -89 22 -120 84 -120 51 0 130
37 135 64 2 15 -1 17 -15 11 -11 -4 -36 -13 -57 -18 -32 -10 -40 -9 -56 8 -11
11 -21 25 -23 32 -2 7 26 31 62 55 51 34 66 49 68 71 2 16 -2 35 -9 43 -16 20
-67 17 -111 -6z m52 -44 c0 -16 -11 -32 -29 -45 -46 -33 -52 -26 -27 34 18 43
56 50 56 11z"/>
<path d="M8386 419 c-64 -55 -60 -93 14 -138 53 -33 57 -40 38 -59 -17 -17
-46 -15 -57 6 -27 47 -28 47 -50 28 -26 -24 -26 -41 -1 -66 41 -41 139 -13
168 46 22 46 5 79 -53 105 -54 24 -62 36 -41 57 14 15 18 14 47 -7 31 -23 33
-23 46 -6 18 26 16 42 -6 55 -34 18 -69 11 -105 -21z"/>
<path d="M8619 427 c-70 -37 -98 -120 -68 -206 20 -58 88 -69 156 -24 52 33
63 58 63 139 0 56 -4 68 -25 89 -31 31 -69 32 -126 2z m65 -36 c10 -11 19 -42
22 -72 6 -66 -11 -104 -46 -104 -32 0 -50 35 -50 100 0 52 20 95 44 95 7 0 21
-9 30 -19z"/>
<path d="M10519 427 c-70 -37 -98 -120 -68 -206 20 -58 88 -69 156 -24 52 33
63 58 63 139 0 56 -4 68 -25 89 -31 31 -69 32 -126 2z m65 -36 c10 -11 19 -42
22 -72 6 -66 -11 -104 -46 -104 -32 0 -50 35 -50 100 0 52 20 95 44 95 7 0 21
-9 30 -19z"/>
<path d="M10730 432 c-49 -19 -69 -54 -28 -50 23 3 23 3 20 -104 -2 -98 -1
-108 15 -108 38 0 46 16 51 99 4 72 8 84 29 101 18 14 30 17 48 10 21 -8 25
-5 34 22 19 53 -26 66 -78 22 l-31 -26 0 26 c0 30 -1 30 -60 8z"/>
<path d="M13850 431 c-51 -21 -64 -41 -25 -41 l26 0 -3 -99 c-3 -109 4 -128
44 -118 36 9 92 50 96 71 4 16 2 16 -27 2 -41 -22 -46 -11 -42 107 3 109 4
107 -69 78z"/>
<path d="M14000 432 c-51 -20 -69 -53 -24 -44 l27 5 -6 -112 c-3 -61 -2 -111
3 -111 5 0 20 4 34 10 24 9 26 15 26 64 0 88 8 111 46 129 20 10 36 12 39 7 3
-6 3 -47 0 -92 -6 -67 -4 -87 9 -103 15 -20 16 -20 64 6 l48 27 21 -24 c27
-31 88 -32 143 -4 l40 20 20 -20 c42 -42 144 -12 170 51 18 43 1 75 -55 100
-54 24 -62 36 -41 57 14 15 18 14 47 -7 31 -23 33 -23 46 -6 18 26 16 42 -6
55 -33 17 -68 11 -101 -17 -36 -30 -53 -67 -45 -94 3 -10 29 -32 56 -49 36
-22 49 -36 45 -46 -3 -9 -6 -18 -6 -20 0 -13 -51 -1 -59 14 -25 42 -25 42 -76
17 -59 -30 -89 -31 -115 -5 -29 29 -25 37 27 68 89 52 113 91 76 127 -23 23
-83 14 -133 -19 -41 -27 -60 -69 -60 -132 0 -33 -25 -53 -43 -35 -5 5 -8 52
-5 105 5 112 4 113 -86 68 l-56 -29 0 29 c0 32 -8 34 -70 10z m395 -32 c11
-18 -4 -45 -35 -63 -30 -18 -30 -18 -30 5 0 45 47 87 65 58z"/>
<path d="M14773 430 c-36 -22 -53 -48 -53 -83 0 -27 19 -46 68 -71 25 -13 32
-23 30 -39 -5 -34 -38 -34 -67 2 l-26 31 -25 -20 -25 -19 21 -28 c53 -71 190
-17 182 73 -3 33 -8 40 -46 59 -61 31 -70 41 -49 62 16 16 18 16 46 -5 28 -20
30 -20 45 -3 21 23 20 38 -3 51 -29 15 -62 12 -98 -10z"/>
<path d="M14957 260 c-33 -27 -34 -40 -2 -70 l25 -23 25 23 c30 28 30 28 1 63
l-22 28 -27 -21z"/>
<path d="M15101 256 c-24 -26 -23 -54 5 -77 13 -10 19 -8 40 13 25 24 25 25 7
56 -10 18 -21 32 -24 32 -3 0 -16 -11 -28 -24z"/>
<path d="M15248 259 c-34 -25 -35 -39 -3 -69 24 -23 25 -23 45 -5 24 22 25 43
2 72 l-17 22 -27 -20z"/>
</g>
</svg>
